<svg width="26" height="24" viewBox="0 0 26 24" fill="none" xmlns="http://www.w3.org/2000/svg">
<path d="M6.10156 18.2663L11.8391 18.2475L24.362 6.3225C24.8535 5.85 25.1239 5.2225 25.1239 4.555C25.1239 3.8875 24.8535 3.26 24.362 2.7875L22.3 0.805C21.3171 -0.14 19.6022 -0.135 18.6271 0.80125L6.10156 12.7288V18.2663V18.2663ZM20.4616 2.5725L22.5275 4.55125L20.4512 6.52875L18.3892 4.5475L20.4616 2.5725ZM8.70184 13.7713L16.5417 6.305L18.6037 8.2875L10.7652 15.7513L8.70184 15.7575V13.7713Z" fill="white"/>
<path d="M3.50067 23.25H21.7026C23.1367 23.25 24.3029 22.1288 24.3029 20.75V9.915L21.7026 12.415V20.75H7.6065C7.5727 20.75 7.5376 20.7625 7.50379 20.7625C7.46089 20.7625 7.41798 20.7513 7.37378 20.75H3.50067V3.25H12.4027L15.003 0.75H3.50067C2.06661 0.75 0.900391 1.87125 0.900391 3.25V20.75C0.900391 22.1288 2.06661 23.25 3.50067 23.25Z" fill="white"/>
</svg>
